HIERARCHY
ROOT Hips
{
  OFFSET 50.2708 102.855 -162.434
  CHANNELS 6 Xposition Yposition Zposition Zrotation Xrotation Yrotation
  JOINT RightUpLeg
  {
    OFFSET -8.9458 -8.66707 0.101652
    CHANNELS 3 Zrotation Xrotation Yrotation
    JOINT RightLeg
    {
      OFFSET 0 -44.4227 1.3727
      CHANNELS 3 Zrotation Xrotation Yrotation
      JOINT RightFoot
      {
        OFFSET 0.253549 -42.0924 -1.46059
        CHANNELS 3 Zrotation Xrotation Yrotation
        JOINT RightToes
        {
          OFFSET 0.04 -4.41509 8.4991
          CHANNELS 3 Zrotation Xrotation Yrotation
          End Site
          {
            OFFSET -0.08 -0.137448 9.77979
          }
        }
      }
    }
  }
  JOINT Spine
  {
    OFFSET 0 11.8905 0
    CHANNELS 3 Zrotation Xrotation Yrotation
    JOINT Spine1
    {
      OFFSET 0 25.6574 0.127663
      CHANNELS 3 Zrotation Xrotation Yrotation
      JOINT HEad
      {
        OFFSET 0 8.73416 0.011341
        CHANNELS 3 Zrotation Xrotation Yrotation
        End Site
        {
          OFFSET -0.29 12.7742 2.51395
        }
      }
      JOINT LeftShoulder1
      {
        OFFSET 8.99 -0.362252 -0.22
        CHANNELS 3 Zrotation Xrotation Yrotation
        JOINT LeftArm
        {
          OFFSET 10.2827 -0.00338 0.322123
          CHANNELS 3 Zrotation Xrotation Yrotation
          JOINT LeftForeArm
          {
            OFFSET 32.7669 0.099144 -1.42434
            CHANNELS 3 Zrotation Xrotation Yrotation
            JOINT LeftHand
            {
              OFFSET 27.5643 0.085362 1.02216
              CHANNELS 3 Zrotation Xrotation Yrotation
              End Site
              {
                OFFSET 16.7443 -0.6 1.50291
              }
            }
          }
        }
      }
      JOINT RightShoulder
      {
        OFFSET -8.99 -0.362252 -0.22
        CHANNELS 3 Zrotation Xrotation Yrotation
        JOINT RightArm
        {
          OFFSET -10.2827 -0.00338 0.322123
          CHANNELS 3 Zrotation Xrotation Yrotation
          JOINT RightForeArm
          {
            OFFSET -32.8971 0.099144 -1.42434
            CHANNELS 3 Zrotation Xrotation Yrotation
            JOINT RightHand
            {
              OFFSET -27.4921 0.085362 1.02216
              CHANNELS 3 Zrotation Xrotation Yrotation
              End Site
              {
                OFFSET -16.6312 -0.6 1.50291
              }
            }
          }
        }
      }
    }
  }
  JOINT LeftUpLeg
  {
    OFFSET 8.9458 -8.66707 0.101652
    CHANNELS 3 Zrotation Xrotation Yrotation
    JOINT LeftLeg
    {
      OFFSET 0 -44.4227 1.3727
      CHANNELS 3 Zrotation Xrotation Yrotation
      JOINT LeftFoot
      {
        OFFSET -0.253549 -42.0924 -1.46059
        CHANNELS 3 Zrotation Xrotation Yrotation
        JOINT LeftToes
        {
          OFFSET -0.04 -4.41509 8.4991
          CHANNELS 3 Zrotation Xrotation Yrotation
          End Site
          {
            OFFSET 0.08 -0.047448 9.77979
          }
        }
      }
    }
  }
}
MOTION
Frames:	14
Frame Time:	0.0166667
37.3891 102.438 -4.50323 -5.20417 -1.54777 3.92607 5.62474 -15.0433 2.71396 2.92049 14.9609 -22.6415 11.5941 -2.47068 -0.271076 0.0462048 0.000533964 0.662642 -1.10283 2.89498 2.27462 8.21507 -3.12919 0.814352 -2.18383 2.07914 -1.28713 -6.4605e-016 0 -0 -91.1978 -16.906 -6.1625 -18.0346 16.2136 -24.4258 0.368473 9.90896 -0.00117926 7.771 -1.17078 -11.1307 66.6672 -31.5133 -7.66523 26.2092 12.8906 6.43024 -0.369625 9.91382 0.00119886 2.52824 3.33121 8.92245 12.2562 38.4218 12.0586 -0.895996 0.717634 0.104691 8.5013e-011 -1.83057e-010 1.02064e-011 
36.9329 102.571 -2.85772 -5.5918 -1.57306 4.24159 6.28366 -14.0172 2.28198 2.98658 15.1135 -22.4137 11.8372 -3.80149 -0.141102 0.0462048 0.000533964 0.662642 -0.76386 3.06883 2.22896 8.16174 -3.09106 0.794842 -1.64625 1.87215 -1.23032 -1.61513e-016 -9.93923e-017 -1.59028e-015 -90.848 -17.2145 -5.24759 -17.8451 16.0964 -23.8439 0.368473 9.90896 -0.00117926 7.88807 -1.24697 -11.5691 68.092 -30.9268 -5.77042 26.0645 13.0398 7.05562 -0.369625 9.91382 0.00119886 3.44839 0.855553 9.53382 13.9757 42.2188 11.1616 -0.776094 4.91497 0.131661 8.50067e-011 -1.83038e-010 1.02016e-011 
36.5066 102.716 -1.29761 -5.8994 -1.54435 4.70652 6.81195 -12.9632 1.95093 3.07993 14.9684 -22.4625 12.0457 -4.9755 -0.023355 0.0462048 0.000533964 0.662642 -0.451917 3.20005 2.16476 8.02922 -2.88626 0.757121 -1.11775 1.33701 -1.32562 -2.60905e-016 -4.96962e-017 -3.18055e-015 -90.5441 -17.3212 -4.62183 -17.6879 15.9627 -23.1301 0.368473 9.90896 -0.00117926 7.97202 -1.31984 -11.9992 69.5498 -30.0345 -3.87472 26.0822 13.2903 8.14465 -0.369625 9.91382 0.00119886 4.22266 -1.99941 9.99704 16.0715 46.1977 9.79194 -0.71716 7.61497 0.12186 8.50035e-011 -1.8306e-010 1.02048e-011 
36.1422 102.851 0.171366 -6.09269 -1.39584 5.2552 7.16255 -12.0428 1.67302 3.21017 14.6505 -22.6977 12.1121 -5.85061 0.0644168 0.0462048 0.000533964 0.662642 -0.214835 3.16277 2.1194 7.91875 -2.47425 0.711215 -0.77503 0.378071 -1.51403 -3.72721e-017 -4.96962e-017 -0 -90.4082 -17.2874 -4.36203 -17.669 15.8206 -22.2525 0.368473 9.90896 -0.00117926 8.14213 -1.37014 -12.2424 70.6647 -28.7966 -2.07255 26.3321 13.6591 9.77728 -0.369625 9.91382 0.00119886 4.61172 -5.0512 10.2378 18.2751 50.0761 9.11698 -0.0689039 7.06454 0.0592111 8.50035e-011 -1.83044e-010 1.0208e-011 
35.8199 102.98 1.58679 -6.1417 -1.19666 5.75257 7.35314 -11.2151 1.39089 3.30363 14.3502 -22.8758 12.1836 -6.62094 0.145569 0.0462048 0.000533964 0.662642 -0.0445857 3.09349 2.0756 7.78957 -2.00499 0.662546 -0.605227 -0.715676 -1.69081 2.73329e-016 0 -0 -90.3565 -17.3157 -4.33218 -17.7906 15.6514 -21.1418 0.368473 9.90896 -0.00117926 8.16069 -1.3672 -12.2086 71.6661 -27.4027 -0.35738 26.6384 14.0685 11.6147 -0.369625 9.91382 0.00119886 4.6957 -8.10235 10.1783 19.9363 53.486 8.74448 0.735766 5.22696 -0.0111074 8.50099e-011 -1.83041e-010 1.0208e-011 
35.5373 103.106 2.98348 -5.9641 -0.972585 6.01506 7.36068 -10.5339 1.00738 3.27348 14.3524 -22.643 12.4438 -7.46097 0.243498 0.0462048 0.000533964 0.662642 0.0269719 3.10245 2.03452 7.64483 -1.66931 0.624583 -0.681282 -1.67864 -1.72286 2.48481e-017 -3.97569e-016 -0 -90.35 -17.6466 -4.43977 -18.1276 15.4248 -19.6336 0.368473 9.90896 -0.00117926 7.77397 -1.25397 -11.6696 72.6467 -26.041 1.16616 26.8857 14.4828 13.4091 -0.369625 9.91382 0.00119886 4.39566 -10.8928 9.53029 19.9306 55.8861 8.66509 1.63475 3.63739 -0.0480432 8.50099e-011 -1.83044e-010 1.02144e-011 
35.2738 103.213 4.36395 -5.66707 -0.786953 6.12288 7.27894 -9.87531 0.598569 3.18982 14.4917 -22.2398 12.6864 -8.28747 0.341063 0.0462048 0.000533964 0.662642 0.0730928 3.14261 1.97818 7.45127 -1.30407 0.582882 -0.876569 -2.53743 -1.6348 4.96962e-017 -3.97569e-016 3.18055e-015 -90.3671 -18.222 -4.62906 -18.5515 15.1663 -17.9859 0.368473 9.90896 -0.00117926 7.14047 -1.08794 -10.8618 73.7649 -24.6815 2.80458 27.0295 14.8339 14.9525 -0.369625 9.91382 0.00119886 3.84044 -13.442 8.77097 19.4211 57.5056 8.86966 2.18614 1.82721 -0.0573775 8.50099e-011 -1.83038e-010 1.02064e-011 
34.9987 103.285 5.74828 -5.31632 -0.736071 6.077 7.18756 -9.11204 0.175399 3.09252 14.7163 -21.7678 12.7084 -9.08542 0.427635 0.0462048 0.000533964 0.662642 0.160801 3.21493 1.87592 7.13549 -0.77582 0.52193 -1.09742 -3.20598 -1.38732 -1.98785e-016 0 -0 -90.3437 -19.0774 -4.85056 -18.9881 14.8935 -16.3374 0.368473 9.90896 -0.00117926 6.36514 -0.90158 -9.89126 75.1992 -23.3612 4.86392 26.9798 15.0546 15.9422 -0.369625 9.91382 0.00119886 3.24853 -15.6426 8.40985 19.6088 58.4039 9.22836 1.65433 -0.247184 -0.0172784 8.50035e-011 -1.83054e-010 1.01937e-011 
34.7401 103.329 7.11854 -4.95429 -0.746548 5.93122 7.10801 -8.30974 -0.163091 2.97755 14.9731 -21.2908 12.6797 -9.82468 0.506609 0.0462048 0.000533964 0.662642 0.277151 3.28563 1.76697 6.8237 -0.186303 0.458587 -1.32103 -3.75639 -1.03791 -5.96354e-016 -3.97569e-016 1.59028e-015 -90.3699 -20.172 -4.99541 -19.3818 14.6381 -14.8741 0.368473 9.90896 -0.00117926 5.35943 -0.714551 -8.92073 76.8766 -22.0169 7.19498 26.8253 15.1546 16.3959 -0.369625 9.91382 0.00119886 2.63123 -17.5673 8.11823 19.5141 58.5508 9.92703 0.866607 -2.3257 0.0306954 8.50035e-011 -1.83054e-010 1.02064e-011 
34.519 103.341 8.45414 -4.65218 -0.791177 5.72592 7.08688 -7.48599 -0.274395 2.8548 15.1968 -20.9144 12.7393 -10.4412 0.576698 0.0462048 0.000533964 0.662642 0.443821 3.31527 1.6819 6.63749 0.451795 0.403535 -1.44415 -4.29497 -0.607639 -9.93923e-017 0 3.18055e-015 -90.5522 -21.564 -4.97209 -19.6334 14.4396 -13.7946 0.368473 9.90896 -0.00117926 3.9593 -0.561535 -8.19157 78.9258 -20.5815 9.83011 26.5967 15.0818 16.104 -0.369625 9.91382 0.00119886 2.03612 -19.2372 7.69247 18.4356 57.9011 11.0532 0.537728 -4.14635 0.0464973 8.50035e-011 -1.83047e-010 1.02064e-011 
34.326 103.337 9.78321 -4.39311 -0.828064 5.5026 7.09885 -6.6587 -0.282308 2.73727 15.3702 -20.6164 12.7761 -11.0218 0.641038 0.0462048 0.000533964 0.662642 0.62249 3.32182 1.61599 6.51454 1.00478 0.359628 -1.6272 -4.6325 -0.167372 1.19271e-015 -1.59028e-015 -7.95139e-016 -90.7223 -22.9964 -4.66126 -19.8386 14.3244 -13.1909 0.368473 9.90896 -0.00117926 2.51556 -0.434228 -7.57389 80.9098 -19.1217 12.5334 26.3408 14.9285 15.4538 -0.369625 9.91382 0.00119886 1.44934 -20.7137 7.25059 16.988 56.5423 12.5852 0.24648 -5.75843 0.0476494 8.50067e-011 -1.83038e-010 1.02064e-011 
34.1598 103.342 11.1308 -4.19201 -0.810322 5.32951 7.15308 -5.81718 -0.214572 2.64944 15.3749 -20.5351 12.6647 -11.572 0.690928 0.0462048 0.000533964 0.662642 0.765293 3.30451 1.58459 6.45889 1.31518 0.336272 -2.09975 -4.53209 0.174599 0 1.59028e-015 -0 -90.7201 -24.1685 -3.80839 -20.0478 14.3508 -13.3509 0.368473 9.90896 -0.00117926 1.32412 -0.338399 -7.02358 82.4491 -17.681 15.0841 26.1213 14.7675 14.7543 -0.369625 9.91382 0.00119886 0.874535 -22.0666 6.86004 15.6434 54.5096 14.6957 -0.294588 -7.14384 0.0343599 8.50115e-011 -1.83041e-010 1.02064e-011 
34.016 103.321 12.4855 -4.02133 -0.725428 5.16677 7.21118 -5.06383 -0.213685 2.5691 15.4487 -20.2951 12.5894 -12.2715 0.761048 0.0462048 0.000533964 0.662642 0.922887 3.2802 1.55796 6.39063 1.44159 0.324429 -2.58039 -4.24375 0.506993 -2.98177e-016 7.95139e-016 -0 -90.5725 -25.2578 -2.69407 -20.285 14.4495 -13.8887 0.368473 9.90896 -0.00117926 0.382341 -0.26546 -6.52478 83.6364 -16.3065 17.5198 25.9144 14.6019 14.0325 -0.369625 9.91382 0.00119886 0.32817 -23.2918 6.48455 14.3654 51.9018 16.7315 -0.768007 -8.24281 0.0182386 8.50019e-011 -1.83044e-010 1.02191e-011 
33.8927 103.236 13.839 -3.84962 -0.511653 4.98748 7.23508 -4.56383 -0.497758 2.47494 15.8953 -19.3226 12.7855 -13.4973 0.913805 0.0462048 0.000533964 0.662642 1.15023 3.26924 1.49818 6.18749 1.34964 0.318231 -2.78499 -3.89846 0.911365 -4.96962e-016 -7.95139e-016 7.95139e-016 -90.2393 -26.4012 -1.50699 -20.6121 14.5778 -14.5608 0.368473 9.90896 -0.00117926 -0.127057 -0.209778 -6.03054 84.3897 -15.0569 19.8382 25.7238 14.4503 13.3612 -0.369625 9.91382 0.00119886 -0.183577 -24.448 6.066 12.9655 48.8684 18.2875 -0.837267 -8.89943 0.0161449 8.50083e-011 -1.83047e-010 1.02064e-011 
